<?xml version="1.0" standalone="no"?>
<!DOCTYPE svg PUBLIC "-//W3C//DTD SVG 20010904//EN"
 "http://www.w3.org/TR/2001/REC-SVG-20010904/DTD/svg10.dtd">
<svg version="1.1"
	xmlns="http://www.w3.org/2000/svg"
	xmlns:xlink="http://www.w3.org/1999/xlink" preserveAspectRatio="xMidYMid meet" viewBox="0 0 248 248" width="143" height="143">
	<defs>
		<path d="M71 56.26C107 55.88 127 55.67 131 55.63C154.38 55.27 166.58 65.57 167.59 86.52C168.6 107.47 156.4 119.72 131 123.27C128.4 123.27 115.4 123.27 92 123.27L131 152.75C152.6 152.75 164.6 152.75 167 152.75C194.42 136.44 207.45 113.58 206.09 84.16C205.18 64.74 197.04 45.54 180.56 32.38C172.07 25.6 161.55 20.62 149 17.44C141.4 17.44 103.4 17.45 35 17.47L35 79.91L71 107.66L71 56.26Z" id="kRs3DmlGq"></path>
		<path d="M140 211.72L71 211.72L71 232.53L35 232.53L35 90.31L221 232.53L167 232.53L140 211.72ZM71 163.16L71 187.44L104 187.44L71 163.16Z" id="a4vg3FERe2"></path>
	</defs>
	<g>
		<g>
			<g>
				<use xlink:href="#kRs3DmlGq" opacity="1" fill="#4b2995" fill-opacity="1"></use>
				<g>
					<use xlink:href="#kRs3DmlGq" opacity="1" fill-opacity="0" stroke="#000000" stroke-width="1" stroke-opacity="0"></use>
				</g>
			</g>
			<g>
				<use xlink:href="#a4vg3FERe2" opacity="1" fill="#4b2995" fill-opacity="1"></use>
				<g>
					<use xlink:href="#a4vg3FERe2" opacity="1" fill-opacity="0" stroke="#000000" stroke-width="1" stroke-opacity="0"></use>
				</g>
			</g>
		</g>
	</g>
</svg>
