<?xml version="1.0" standalone="no"?>
<!DOCTYPE svg PUBLIC "-//W3C//DTD SVG 20010904//EN"
 "http://www.w3.org/TR/2001/REC-SVG-20010904/DTD/svg10.dtd">
<svg version="1.1" xmlns="http://www.w3.org/2000/svg" xmlns:xlink="http://www.w3.org/1999/xlink" preserveAspectRatio="xMidYMid meet" viewBox="0 0 192 222" width="192" height="222">
  <defs>
    <path d="M39 93.66L39 42.26L99 41.63C122.38 41.27 134.58 51.57 135.59 72.52C136.6 93.47 124.4 105.72 99 109.27L60 109.27L99 138.75L135 138.75C162.42 122.44 175.45 99.58 174.09 70.16C173.18 50.74 165.04 31.54 148.56 18.38C140.07 11.6 129.55 6.62 117 3.44L3 3.47L3 65.91L39 93.66Z" id="d2VGLSQBoC"></path>
    <path d="M135 218.53L108 197.72L39 197.72L39 218.53L3 218.53L3 76.31L189 218.53L135 218.53ZM72 173.44L39 149.16L39 173.44L72 173.44Z" id="akImDlOP1"></path>
  </defs>
  <g>
    <g>
      <g>
        <use xlink:href="#d2VGLSQBoC" opacity="1" fill="#4b2995" fill-opacity="1"></use>
      </g>
      <g>
        <use xlink:href="#akImDlOP1" opacity="1" fill="#4b2995" fill-opacity="1"></use>
      </g>
    </g>
  </g>
</svg>
